# xmcd
# Track frame offsets:
# 183
# 12340
# 23578
# 36233
# 47183
# 61615
# 74170
# 86425
# 98260
# 108983
# 121245
# 132110
# 145468
# 154755
# 170618
# 181228
# 193640
# 211685
#
# Disc length: 3053 seconds
# Revision: 1
# Processed by: cddbd v1.5.2PL0 Copyright (c) Steve Scherf et al.
# Submitted via: VisiTrax 2.10.3.257 - For more info visit www.synapsa.com
#
DISCID=ec0beb12
DTITLE=Various Artist - Country and Western Hits CD2
DYEAR=1994
DGENRE=Country
TTITLE0=Tammy Wynette - Stand by your man
TTITLE1=Pridesmen - Ghostriders in the sky
TTITLE2=Don Williams - You're my best friend
TTITLE3=Frankie Laine - High noon
TTITLE4=Everly Brothers - The brand new tennessee waltz
TTITLE5=Bobby Bare - Detroit city
TTITLE6=Patsy Cline - Crazy
TTITLE7=Don Gibson - I can't stop loving you
TTITLE8=Connie Smith - Louisiana man
TTITLE9=Freddy Fender - Wasted days and wasted nights
TTITLE10=Lester Flat - Foggy mountain breakdown
TTITLE11=Kenny Rogers - Ruby don't take love to town
TTITLE12=Chet Atkins - Yakety axe
TTITLE13=Audrey Landers - Blue bayou
TTITLE14=Jim Reeves - He'll have to go
TTITLE15=Johnny Cash - I walk the line
TTITLE16=Skeeter Davis - If you could read my mind
TTITLE17=Mary MacGregor - Torn between two lovers
EXTD=
EXTT0=
EXTT1=
EXTT2=
EXTT3=
EXTT4=
EXTT5=
EXTT6=
EXTT7=
EXTT8=
EXTT9=
EXTT10=
EXTT11=
EXTT12=
EXTT13=
EXTT14=
EXTT15=
EXTT16=
EXTT17=
PLAYORDER=
